<svg width="16" height="16" viewBox="0 0 16 16" fill="none" xmlns="http://www.w3.org/2000/svg">
<circle cx="8" cy="8" r="8" fill="url(#paint0_linear_1006_843)"/>
<path d="M11.7399 5.83634C11.3931 5.48825 10.8308 5.48825 10.4839 5.83634L8.35714 7.97094L7.25993 3.86107C7.13298 3.38556 6.64601 3.10338 6.17224 3.23079C5.69847 3.3582 5.41732 3.84696 5.54426 4.32246L6.90689 9.4265L5.46013 10.8786C5.11331 11.2267 5.11331 11.791 5.46013 12.1391C5.80695 12.4872 6.36926 12.4872 6.71608 12.1391L11.7399 7.0969C12.0867 6.74881 12.0867 6.18444 11.7399 5.83634Z" fill="url(#paint1_linear_1006_843)"/>
<defs>
<linearGradient id="paint0_linear_1006_843" x1="8" y1="0" x2="8" y2="16" gradientUnits="userSpaceOnUse">
<stop stop-color="#1E50FF"/>
<stop offset="1" stop-color="#5699FF"/>
</linearGradient>
<linearGradient id="paint1_linear_1006_843" x1="8.60001" y1="3.2002" x2="8.60001" y2="12.4002" gradientUnits="userSpaceOnUse">
<stop stop-color="white"/>
<stop offset="1" stop-color="white" stop-opacity="0"/>
</linearGradient>
</defs>
</svg>
